<svg id="messenger_icon" data-name="messenger icon" xmlns="http://www.w3.org/2000/svg" width="28.68" height="28.974" viewBox="0 0 28.68 28.974">
  <g id="Layer_1" data-name="Layer 1" transform="translate(0 0)">
    <path id="Path_27" data-name="Path 27" d="M5.338,28.974c0-1.543-.029-2.92.015-4.293a1.509,1.509,0,0,0-.623-1.326A12.14,12.14,0,0,1,.05,12.654,13.488,13.488,0,0,1,10.237.551,14.94,14.94,0,0,1,26.28,5.979c4.547,6.433,2.442,15.073-4.64,18.982a15.246,15.246,0,0,1-10.834,1.49,1.916,1.916,0,0,0-1.18.164C8.236,27.338,6.875,28.119,5.338,28.974ZM12.621,10,5.289,17.78a1.561,1.561,0,0,0,.728-.233c1.837-1.018,3.685-2.018,5.5-3.07a.786.786,0,0,1,1.132.176c1.1,1.053,2.263,2.054,3.44,3.11,2.3-2.437,4.8-5.094,7.3-7.75-2.147,1.019-4.21,2.141-6.24,3.308a.734.734,0,0,1-1.074-.14C14.974,12.085,13.8,11.067,12.621,10Z" transform="translate(-0.002 0)" fill="#178dbf"/>
  </g>
</svg>
