<?xml version="1.0" encoding="UTF-8"?><svg xmlns="http://www.w3.org/2000/svg" viewBox="0 0 425.55 174.64"><defs><style>.e{fill:#fff;}.f{fill:#0097cb;}.g{fill:#f5d10d;}</style></defs><g id="a"/><g id="b"><g id="c"><g id="d"><g><path class="e" d="M404.87,174.64H20.68c-11.4,0-20.68-9.28-20.68-20.68V20.68C0,9.28,9.28,0,20.68,0H404.87c11.4,0,20.68,9.28,20.68,20.68V153.96c0,11.4-9.28,20.68-20.68,20.68ZM20.68,11.96c-4.81,0-8.72,3.91-8.72,8.72V153.96c0,4.81,3.91,8.72,8.72,8.72H404.87c4.81,0,8.72-3.91,8.72-8.72V20.68c0-4.81-3.91-8.72-8.72-8.72H20.68Z"/><rect class="f" x="5.98" y="5.98" width="413.59" height="162.68" rx="14.7" ry="14.7"/><g><path class="e" d="M96.71,93.66c-3.14,3.11-7.3,4.66-12.49,4.66-4.8,0-8.64-1.28-11.53-3.84v20.46h-15.75V46.27h15.27v4.51c1.6-1.6,3.33-2.8,5.19-3.6,1.86-.8,4.1-1.2,6.72-1.2,5.25,0,9.32,1.43,12.2,4.28,2.88,2.86,4.47,6.17,4.75,9.95,.29,3.78,.43,7.76,.43,11.94v2.86c0,4.57-.29,8.31-.86,11.23-.58,2.92-1.89,5.39-3.94,7.42Zm-17.48-33.47c-2.75,0-4.53,.96-5.33,2.88-.8,1.92-1.2,5.03-1.2,9.32s.4,7.4,1.2,9.32c.8,1.92,2.58,2.88,5.33,2.88s4.53-.96,5.33-2.88c.8-1.92,1.2-5.03,1.2-9.32s-.4-7.4-1.2-9.32c-.8-1.92-2.58-2.88-5.33-2.88Z"/><path class="e" d="M135.61,98.33v-31.39c0-2.5-.64-4.25-1.92-5.25-1.28-1-2.66-1.49-4.13-1.49s-2.77,.51-4.08,1.54c-1.31,1.03-1.97,2.76-1.97,5.2v31.39h-15.75V29.84h15.75v20.27c1.6-1.38,3.36-2.41,5.28-3.1,1.92-.69,3.94-1.03,6.05-1.03,5.38,0,9.48,1.75,12.29,5.25,2.82,3.5,4.23,8,4.23,13.52v33.58h-15.75Z"/><path class="e" d="M158.95,41.27v-12.01h15.75v12.01h-15.75Zm0,57.05V48.67h15.75v49.66h-15.75Z"/><path class="e" d="M198.33,98.33c-5.32,0-9.32-1.52-12.01-4.57-2.69-3.05-4.03-6.62-4.03-10.72V29.84h15.75v52.05c0,2.12,1.06,3.18,3.17,3.18h5.48v13.25h-8.36Z"/><path class="g" d="M229.16,98.81c-5,0-9.17-.43-12.54-1.3-3.36-.86-6.68-2.93-9.94-6.2l10.18-10.18c1.47,1.47,3.17,2.56,5.09,3.27,1.92,.71,4.42,1.06,7.49,1.06,1.54,0,3.04-.25,4.51-.77,1.47-.51,2.21-1.38,2.21-2.59,0-.83-.27-1.55-.82-2.16-.54-.61-1.52-.98-2.93-1.1l-7.97-.77c-4.74-.45-8.42-1.86-11.05-4.23-2.63-2.37-3.94-5.96-3.94-10.76,0-5.38,2.05-9.57,6.15-12.58,4.1-3.01,8.9-4.51,14.41-4.51,4.61,0,8.55,.45,11.81,1.34,3.27,.9,6.11,2.56,8.55,4.99l-9.7,9.7c-1.15-1.15-2.67-1.95-4.56-2.4-1.89-.45-4.02-.67-6.39-.67-1.67,0-2.93,.32-3.79,.96-.86,.64-1.3,1.31-1.3,2.02,0,.45,.1,.99,.29,1.63,.19,.64,1.22,1.06,3.07,1.25l7.97,.77c5.19,.51,9.08,2.19,11.67,5.04,2.59,2.85,3.89,6.42,3.89,10.71,0,5.76-2.11,10.12-6.34,13.06-4.23,2.95-9.57,4.42-16.04,4.42Z"/><path class="g" d="M273.44,98.33c-5.32,0-9.32-1.52-12.01-4.57s-4.03-6.63-4.03-10.74v-22.34h-4.71v-12.1h4.71v-14.79h15.75v14.79h8.16v12.1h-8.16v21.22c0,2.12,1.06,3.18,3.17,3.18h4.99v13.25h-7.88Z"/><path class="g" d="M312.34,98.33v-4.23c-1.67,1.63-3.33,2.81-4.99,3.53-1.67,.72-3.84,1.08-6.53,1.08-5.19,0-8.9-1.12-11.14-3.36-2.24-2.24-3.76-4.42-4.56-6.53-.8-2.11-1.2-4.39-1.2-6.82,0-4.23,1.47-7.78,4.42-10.66,2.94-2.88,7.33-4.32,13.16-4.32h10.47v-1.34c0-2.31-.59-3.95-1.78-4.95-1.19-.99-3.19-1.49-6-1.49-1.99,0-3.52,.24-4.61,.72-1.09,.48-2.31,1.39-3.65,2.74l-9.8-9.8c2.56-2.56,5.25-4.35,8.07-5.38,2.82-1.02,6.4-1.54,10.76-1.54,15.18,0,22.76,6.26,22.76,18.76v33.58h-15.37Zm-.38-20.84h-7.97c-1.54,0-2.75,.38-3.65,1.15-.9,.77-1.34,1.76-1.34,2.98s.45,2.24,1.34,3.07c.9,.83,2.18,1.25,3.84,1.25s2.98-.11,3.75-.34c.77-.22,1.63-.78,2.59-1.68,.96-.9,1.44-2.59,1.44-5.09v-1.34Z"/><path class="g" d="M362.67,62.88c-.9-.9-1.76-1.57-2.59-2.02-.83-.45-1.86-.67-3.07-.67-2.05,0-3.62,.69-4.71,2.07-1.09,1.38-1.63,3.06-1.63,5.05v31.01h-15.75V46.55h15.37v4.23c1.34-1.34,3.09-2.48,5.24-3.41,2.14-.93,4.47-1.39,6.96-1.39s4.77,.35,6.63,1.06c1.86,.71,3.68,1.95,5.47,3.75l-11.91,12.1Z"/></g><g><path class="e" d="M218.63,146.18v-33.42c.46-.02,.85-.05,1.24-.05,4.57,0,9.14-.04,13.71,.01,2.28,.03,4.57,.04,6.8,.62,.77,.2,1.55,.43,2.28,.75,2.4,1.06,3.79,2.92,4.06,5.52,.13,1.22,.13,2.48,0,3.71-.24,2.23-1.26,4.03-3.33,5.11-.1,.06-.2,.12-.3,.19-.03,.02-.04,.06-.1,.15,.06,.06,.13,.15,.21,.18,2.67,.86,4.02,2.79,4.4,5.47,.23,1.67,.26,3.35-.04,5.03-.51,2.88-2.2,4.72-4.91,5.71-2.02,.74-4.14,1.02-6.25,1.05-5.77,.08-11.54,.05-17.31,.06-.11,0-.23-.05-.44-.09Zm7.39-13.49v7.26c.24,.03,.43,.08,.62,.08,2.93,0,5.85,.04,8.78-.02,.87-.02,1.75-.2,2.59-.43,1.2-.32,1.91-1.16,2.07-2.39,.08-.62,.06-1.28-.02-1.9-.14-1.14-.82-1.93-1.92-2.23-.84-.23-1.72-.42-2.59-.43-2.88-.05-5.77-.02-8.66-.02-.27,0-.54,.05-.87,.08Zm.01-6.7c.23,.04,.35,.08,.47,.08,2.88,0,5.77,.04,8.65-.02,.78-.01,1.58-.22,2.34-.46,.85-.27,1.45-.91,1.59-1.8,.12-.74,.16-1.51,.07-2.25-.11-.94-.69-1.65-1.6-1.92-.84-.25-1.72-.44-2.58-.46-2.68-.06-5.37-.02-8.05-.02-.27,0-.54,.03-.89,.06v6.8Z"/><path class="e" d="M213.83,129.53c0,2.21-.2,4.4-.79,6.54-1.37,4.96-4.49,8.27-9.42,9.71-5,1.46-10.06,1.46-15.06,0-4.84-1.41-7.99-4.61-9.34-9.48-1.18-4.25-1.2-8.57-.21-12.85,1.27-5.44,4.64-8.97,10.06-10.38,4.99-1.3,10.01-1.29,14.94,.28,4.82,1.53,7.78,4.87,9.07,9.74,.56,2.11,.75,4.26,.75,6.43Zm-27.99,.37c.08,.81,.13,1.89,.31,2.95,.7,4.06,3.01,6.39,7.07,7.12,1.98,.36,3.98,.33,5.97-.06,3.72-.72,5.94-2.94,6.69-6.64,.52-2.58,.52-5.18-.1-7.74-.68-2.85-2.34-4.9-5.2-5.79-3.15-.98-6.32-.95-9.44,.13-1.85,.64-3.21,1.9-4.09,3.68-.95,1.92-1.11,3.99-1.22,6.35Z"/><path class="e" d="M146.84,116.77l-5.2,5.21s-.13-.01-.21-.08c-3.06-2.78-6.75-3.07-10.6-2.67-.4,.04-.79,.12-1.18,.21-3.35,.77-5.38,2.86-6.12,6.2-.6,2.74-.53,5.49-.05,8.24,.62,3.54,2.67,5.63,6.22,6.25,2.31,.4,4.63,.44,6.93-.02,3.62-.72,5.28-3.24,4.65-7.08h-9.03c-.22-1.08-.09-2.08-.11-3.06-.02-1,0-2,0-2.98,.88-.28,14.77-.36,16.57-.12,.04,.06,.12,.13,.12,.19,.04,3.08,.2,6.17-.24,9.24-.73,5.18-3.51,8.41-8.57,9.66-4.82,1.19-9.7,1.16-14.53-.02-5.05-1.24-8.1-4.49-9.19-9.56-.88-4.08-.99-8.2-.17-12.3,1.23-6.13,4.91-9.95,11.06-11.24,4.66-.98,9.31-.94,13.89,.53,1.77,.57,3.37,1.47,4.8,2.68,.34,.28,.7,.53,.97,.74Z"/><path class="e" d="M258.93,140.8c-.75,1.87-1.46,3.65-2.16,5.42h-7.34c4.49-11.28,8.93-22.42,13.37-33.6h7.66c4.48,11.17,8.94,22.31,13.46,33.58h-7.79c-.71-1.76-1.43-3.57-2.17-5.4h-15.04Zm12.65-6.3c-1.76-4.33-3.3-8.54-5.15-12.92-1.75,4.47-3.39,8.65-5.07,12.92h10.22Z"/><path class="e" d="M295.24,112.9v26.84h16.35v6.34c-.88,.26-20.81,.37-23.61,.14-.03-.02-.06-.05-.08-.08-.03-.03-.06-.06-.07-.1-.03-.12-.07-.23-.07-.35,0-10.66,0-21.31,0-31.97,0-.24,.03-.47,.04-.69,.82-.32,5.57-.41,7.45-.13Z"/><path class="e" d="M160.89,139.74h16.22c.28,.96,.32,5.08,.08,6.47h-23.62c-.25-.9-.36-30.36-.13-33.26,.8-.29,5.33-.38,7.38-.12,.14,1.43,.04,2.9,.06,4.36,.02,1.48,0,2.97,0,4.45,0,1.52,0,3.05,0,4.57v13.53Z"/></g></g></g></g></g></svg>