<svg xmlns="http://www.w3.org/2000/svg" width="27.128" height="22.329" viewBox="0 0 27.128 22.329">
  <path id="twitter_icon" data-name="twitter icon" d="M320.429,207.964a11.2,11.2,0,0,1-2.743.782c.441-.074,1.089-.873,1.349-1.2a5.038,5.038,0,0,0,.911-1.66c.024-.047.042-.107-.006-.143a.157.157,0,0,0-.146.012A13.972,13.972,0,0,1,316.541,207a.217.217,0,0,1-.224-.059,2.656,2.656,0,0,0-.284-.29,5.766,5.766,0,0,0-1.576-.966,5.494,5.494,0,0,0-2.417-.389,5.777,5.777,0,0,0-2.293.647,5.909,5.909,0,0,0-1.85,1.511,5.688,5.688,0,0,0-1.1,2.213,6,6,0,0,0-.059,2.335c.018.131.006.148-.112.131-4.468-.665-8.171-2.264-11.177-5.689-.13-.149-.2-.149-.308.011-1.316,1.971-.677,5.14.966,6.7.219.208.444.415.687.6a5.694,5.694,0,0,1-2.156-.6c-.131-.083-.2-.035-.208.113a3.42,3.42,0,0,0,.035.64,5.73,5.73,0,0,0,3.533,4.569,3.359,3.359,0,0,0,.716.22,6.387,6.387,0,0,1-2.115.065c-.154-.03-.213.048-.154.2a5.951,5.951,0,0,0,4.444,3.722c.2.035.4.035.605.082-.012.019-.024.019-.036.036-.5.761-2.229,1.327-3.035,1.609a10.866,10.866,0,0,1-4.61.59c-.248-.037-.3-.033-.367,0s-.008.1.071.165c.314.208.634.392.96.569a15.222,15.222,0,0,0,3.081,1.233c5.538,1.529,11.776.405,15.934-3.726,3.265-3.244,4.41-7.719,4.41-12.2,0-.175.206-.272.329-.365a10.766,10.766,0,0,0,2.169-2.255.686.686,0,0,0,.144-.432v-.023C320.541,207.892,320.539,207.914,320.429,207.964Z" transform="translate(-293.413 -205.288)" fill="#178dbf"/>
</svg>
