<svg width="15" height="15" viewBox="0 0 15 15" fill="none" xmlns="http://www.w3.org/2000/svg">
<g clip-path="url(#clip0_114_68)">
<path d="M13.2129 10.9569C12.7476 10.4882 11.6209 9.8041 11.0742 9.52842C10.3623 9.16982 10.3037 9.14053 9.74413 9.55625C9.37088 9.83369 9.12274 10.0815 8.68592 9.98838C8.24911 9.89521 7.29989 9.36992 6.46873 8.5414C5.63758 7.71289 5.08182 6.73613 4.98836 6.30078C4.89491 5.86543 5.14686 5.62021 5.42166 5.24609C5.80897 4.71875 5.77967 4.63086 5.44862 3.91894C5.19051 3.36523 4.48651 2.24902 4.016 1.78613C3.51268 1.28896 3.51268 1.37685 3.18836 1.51162C2.92432 1.62269 2.67102 1.75773 2.43163 1.91504C1.96288 2.22646 1.70272 2.48516 1.52079 2.87392C1.33885 3.26269 1.25711 4.17412 2.19666 5.88096C3.13622 7.58779 3.79539 8.46055 5.15975 9.82109C6.52411 11.1816 7.57323 11.9132 9.10692 12.7733C11.0042 13.8359 11.7319 13.6288 12.1219 13.4472C12.5118 13.2655 12.7717 13.0077 13.0837 12.539C13.2414 12.3 13.3767 12.0469 13.488 11.7831C13.623 11.46 13.7109 11.46 13.2129 10.9569Z" stroke="#597445" stroke-width="0.9375" stroke-miterlimit="10"/>
</g>
<defs>
<clipPath id="clip0_114_68">
<rect width="15" height="15" fill="white"/>
</clipPath>
</defs>
</svg>
