<svg width="134" height="30" viewBox="0 0 134 30" fill="none" xmlns="http://www.w3.org/2000/svg">
<path d="M11.4 29.4C9.08 29.4 7.04 28.96 5.28 28.08C3.54667 27.1733 2.08 25.8533 0.88 24.12L3.12 21.64C4.32 23.4 5.58667 24.6533 6.92 25.4C8.28 26.1467 9.88 26.52 11.72 26.52C12.8933 26.52 13.9467 26.32 14.88 25.92C15.84 25.52 16.6 24.9733 17.16 24.28C17.72 23.5867 18 22.8 18 21.92C18 21.3333 17.8933 20.8 17.68 20.32C17.4933 19.84 17.1867 19.4133 16.76 19.04C16.36 18.6667 15.8533 18.32 15.24 18C14.6267 17.68 13.92 17.4 13.12 17.16C12.3467 16.8933 11.4667 16.64 10.48 16.4C9.09333 16.1067 7.88 15.72 6.84 15.24C5.82667 14.76 4.96 14.1867 4.24 13.52C3.52 12.8533 2.98667 12.0933 2.64 11.24C2.29333 10.36 2.12 9.37333 2.12 8.28C2.12 6.78667 2.53333 5.46667 3.36 4.32C4.21333 3.17333 5.34667 2.26667 6.76 1.6C8.2 0.933331 9.81333 0.599998 11.6 0.599998C13.76 0.599998 15.6 0.999999 17.12 1.8C18.6667 2.6 19.9067 3.73333 20.84 5.2L18.6 7.4C17.7467 6.14667 16.7333 5.18667 15.56 4.52C14.4133 3.82667 13.0667 3.48 11.52 3.48C10.32 3.48 9.25333 3.68 8.32 4.08C7.38667 4.48 6.65333 5.04 6.12 5.76C5.58667 6.45333 5.32 7.26667 5.32 8.2C5.32 8.86667 5.44 9.48 5.68 10.04C5.94667 10.5733 6.33333 11.04 6.84 11.44C7.34667 11.84 8 12.2 8.8 12.52C9.6 12.84 10.5467 13.12 11.64 13.36C13.1333 13.7067 14.4667 14.12 15.64 14.6C16.84 15.08 17.8533 15.64 18.68 16.28C19.5067 16.92 20.1333 17.64 20.56 18.44C20.9867 19.24 21.2 20.1467 21.2 21.16C21.2 22.8133 20.7867 24.2667 19.96 25.52C19.16 26.7467 18.0267 27.7067 16.56 28.4C15.0933 29.0667 13.3733 29.4 11.4 29.4ZM27.2988 29V0.999998H37.8988C39.7921 0.999998 41.5388 1.34667 43.1388 2.04C44.7388 2.70667 46.1254 3.66666 47.2988 4.92C48.4721 6.14666 49.3788 7.61333 50.0188 9.32C50.6588 11.0267 50.9788 12.92 50.9788 15C50.9788 17.0533 50.6588 18.9467 50.0188 20.68C49.3788 22.3867 48.4721 23.8667 47.2988 25.12C46.1521 26.3467 44.7654 27.3067 43.1388 28C41.5388 28.6667 39.7921 29 37.8988 29H27.2988ZM30.4588 26.36L30.2588 25.96H37.6988C39.1654 25.96 40.5121 25.6933 41.7388 25.16C42.9921 24.6267 44.0588 23.8933 44.9388 22.96C45.8454 22 46.5388 20.84 47.0188 19.48C47.4988 18.12 47.7388 16.6267 47.7388 15C47.7388 13.3733 47.4988 11.8933 47.0188 10.56C46.5388 9.2 45.8454 8.04 44.9388 7.08C44.0321 6.12 42.9654 5.37333 41.7388 4.84C40.5121 4.30667 39.1654 4.04 37.6988 4.04H30.1788L30.4588 3.68V26.36ZM69.2644 29.4C67.2377 29.4 65.3577 29.04 63.6244 28.32C61.891 27.6 60.371 26.6 59.0644 25.32C57.7844 24.0133 56.7844 22.4933 56.0644 20.76C55.371 19 55.0244 17.0933 55.0244 15.04C55.0244 13.0133 55.371 11.1333 56.0644 9.4C56.7844 7.64 57.7844 6.12 59.0644 4.84C60.3444 3.53333 61.851 2.52 63.5844 1.8C65.3177 1.08 67.1977 0.719999 69.2244 0.719999C70.6644 0.719999 72.051 0.933332 73.3844 1.36C74.7444 1.76 75.971 2.33333 77.0644 3.08C78.1577 3.8 79.0777 4.65333 79.8244 5.64L77.7444 7.76C76.5444 6.50667 75.2244 5.53333 73.7844 4.84C72.3444 4.14666 70.8244 3.8 69.2244 3.8C67.651 3.8 66.1977 4.08 64.8644 4.64C63.531 5.2 62.3577 5.98667 61.3444 7C60.3577 8.01333 59.5844 9.21333 59.0244 10.6C58.491 11.96 58.2244 13.44 58.2244 15.04C58.2244 16.6133 58.5044 18.0933 59.0644 19.48C59.651 20.84 60.451 22.04 61.4644 23.08C62.4777 24.0933 63.651 24.8933 64.9844 25.48C66.3444 26.04 67.7977 26.32 69.3444 26.32C70.7044 26.32 71.931 26.12 73.0244 25.72C74.1444 25.32 75.1177 24.7467 75.9444 24C76.771 23.2533 77.3977 22.3867 77.8244 21.4C78.2777 20.3867 78.5044 19.3067 78.5044 18.16V17.36L78.9844 17.8H69.3044V14.64H81.7444C81.7977 14.9067 81.8244 15.1467 81.8244 15.36C81.851 15.5733 81.8644 15.7733 81.8644 15.96C81.891 16.1467 81.9044 16.32 81.9044 16.48C81.9044 18.48 81.5844 20.28 80.9444 21.88C80.331 23.4533 79.451 24.8 78.3044 25.92C77.1844 27.04 75.851 27.9067 74.3044 28.52C72.7844 29.1067 71.1044 29.4 69.2644 29.4ZM102.98 27.6V3.48L104.06 4.24L98.5003 7.44L97.6603 4.68L104.66 0.599998H106.18V27.6H102.98ZM98.4603 29V25.96H110.78V29H98.4603ZM123.46 29.32C121.62 29.32 119.953 28.8933 118.46 28.04C116.966 27.1867 115.726 25.9733 114.74 24.4L116.58 22.4C117.753 23.84 118.886 24.8667 119.98 25.48C121.073 26.0933 122.233 26.4 123.46 26.4C124.766 26.4 125.94 26.1067 126.98 25.52C128.046 24.9067 128.886 24.0933 129.5 23.08C130.113 22.0667 130.42 20.9467 130.42 19.72C130.42 18.52 130.126 17.44 129.54 16.48C128.98 15.4933 128.22 14.72 127.26 14.16C126.326 13.5733 125.246 13.28 124.02 13.28C123.353 13.28 122.7 13.3467 122.06 13.48C121.42 13.6133 120.74 13.84 120.02 14.16C119.3 14.48 118.473 14.92 117.54 15.48L115.86 13.24L117.58 0.999998H132.66V3.96H119.42L120.22 3.28L118.74 13.36L117.94 12.48C118.366 12.1067 118.94 11.76 119.66 11.44C120.38 11.0933 121.153 10.8267 121.98 10.64C122.833 10.4267 123.673 10.32 124.5 10.32C126.233 10.32 127.766 10.72 129.1 11.52C130.46 12.2933 131.526 13.3733 132.3 14.76C133.1 16.12 133.5 17.6933 133.5 19.48C133.5 21.32 133.06 22.9867 132.18 24.48C131.3 25.9733 130.1 27.16 128.58 28.04C127.06 28.8933 125.353 29.32 123.46 29.32Z" fill="#597445"/>
</svg>
