<svg width="27" height="25" viewBox="0 0 27 25" fill="none" xmlns="http://www.w3.org/2000/svg">
<path d="M0 20.2869C0 20.2303 0.0483533 20.1844 0.108 20.1844H26.892C26.9516 20.1844 27 20.2303 27 20.2869V21.8238C27 21.8804 26.9516 21.9262 26.892 21.9262H0.108C0.0483535 21.9262 0 21.8804 0 21.8238V20.2869Z" fill="#597445"/>
<path d="M0 23.3607C0 23.3041 0.0483533 23.2582 0.108 23.2582H26.892C26.9516 23.2582 27 23.3041 27 23.3607V24.8975C27 24.9541 26.9516 25 26.892 25H0.108C0.0483535 25 0 24.9541 0 24.8975V23.3607Z" fill="#597445"/>
<path d="M7.236 14.5492C7.236 14.4926 7.28435 14.4467 7.344 14.4467H9.072C9.13165 14.4467 9.18 14.4926 9.18 14.5492V18.4426C9.18 18.4992 9.13165 18.5451 9.072 18.5451H7.344C7.28435 18.5451 7.236 18.4992 7.236 18.4426V14.5492Z" fill="#597445"/>
<path d="M11.772 3.73975C11.772 5.80516 10.0071 7.47951 7.83 7.47951C5.65289 7.47951 3.888 5.80516 3.888 3.73975C3.888 1.67434 5.65289 0 7.83 0C10.0071 0 11.772 1.67434 11.772 3.73975Z" fill="#597445"/>
<path d="M14.796 9.42623C14.796 11.6897 12.9828 13.5246 10.746 13.5246C8.50925 13.5246 6.696 11.6897 6.696 9.42623C6.696 7.16277 8.50925 5.32787 10.746 5.32787C12.9828 5.32787 14.796 7.16277 14.796 9.42623Z" fill="#597445"/>
<path d="M6.696 6.19877C6.696 7.69831 5.36629 8.91393 3.726 8.91393C2.08571 8.91393 0.756 7.69831 0.756 6.19877C0.756 4.69923 2.08571 3.48361 3.726 3.48361C5.36629 3.48361 6.696 4.69923 6.696 6.19877Z" fill="#597445"/>
<path d="M1.404 10.6557C1.404 9.01473 2.80624 7.68443 4.536 7.68443H10.8C12.5298 7.68443 13.932 9.01473 13.932 10.6557C13.932 12.2967 12.5298 13.627 10.8 13.627H4.536C2.80624 13.627 1.404 12.2967 1.404 10.6557Z" fill="#597445"/>
<path d="M3.672 7.53074C3.672 6.54047 4.51818 5.7377 5.562 5.7377H9.45C10.4938 5.7377 11.34 6.54047 11.34 7.53074C11.34 8.521 10.4938 9.32377 9.45 9.32377H5.562C4.51818 9.32377 3.672 8.521 3.672 7.53074Z" fill="#597445"/>
<path d="M14.6108 4.26047C16.4177 3.85688 17.4525 4.38769 18.0732 4.87116C18.1725 4.94854 18.3211 4.93335 18.4034 4.8397C19.4413 3.65896 20.8151 3.78326 21.7557 3.87009C21.9237 3.88561 22.0351 3.72028 21.9329 3.59278C20.9335 2.34588 19.0662 2.97186 18.3127 3.53009C18.2412 3.58306 18.1429 3.5947 18.0615 3.55674C15.8461 2.5236 14.7504 3.28747 14.3774 4.0224C14.3061 4.16299 14.4507 4.29623 14.6108 4.26047Z" fill="#597445"/>
<path d="M20.3675 0.703679C21.545 0.764761 22.1239 1.2451 22.4515 1.65742C22.5289 1.75479 22.6758 1.77691 22.7831 1.70967C23.642 1.171 24.4773 1.41834 25.0806 1.63005C25.239 1.68563 25.3898 1.55451 25.314 1.41141C24.8404 0.518248 23.5714 0.597441 22.9557 0.826274C22.8712 0.857663 22.7734 0.84564 22.7046 0.789534C21.4922 -0.199581 20.6423 0.0322254 20.2204 0.422222C20.1026 0.531119 20.2033 0.695159 20.3675 0.703679Z" fill="#597445"/>
<path d="M17.3768 10.5376C19.5418 10.2802 20.6886 10.9354 21.3525 11.4822C21.441 11.555 21.5737 11.552 21.6605 11.4774C22.9543 10.3656 24.5283 10.6192 25.6005 10.7919L25.6243 10.7958C25.7957 10.8234 25.9185 10.6576 25.815 10.5251C24.774 9.19216 22.5654 9.66643 21.6774 10.1568C21.6073 10.1956 21.5197 10.1983 21.4482 10.1619C18.9905 8.91139 17.6665 9.57912 17.1782 10.2795C17.0876 10.4094 17.2139 10.557 17.3768 10.5376Z" fill="#597445"/>
</svg>
