<svg width="15" height="10" viewBox="0 0 15 10" fill="none" xmlns="http://www.w3.org/2000/svg">
<path d="M10.3025 4.985L14.1469 1.645V8.28688L10.3025 4.985ZM5.34875 5.55062L6.69875 6.7225C6.91063 6.9025 7.18688 7.01125 7.48875 7.01125H7.49937H7.5075C7.81 7.01125 8.08625 6.90188 8.30062 6.72062L8.29875 6.72188L9.64875 5.55L13.7525 9.07437H1.24688L5.34875 5.55062ZM1.24125 0.853125H13.76L7.74688 6.07562C7.67956 6.12963 7.59568 6.15877 7.50938 6.15812H7.50063H7.4925C7.40591 6.15874 7.32177 6.12937 7.25438 6.075L7.255 6.07562L1.24125 0.853125ZM0.853125 1.64438L4.69688 4.98438L0.853125 8.28437V1.64438ZM14.3531 0.11875C14.2031 0.04375 14.0269 0 13.84 0H1.16188C0.980805 0.000716762 0.802296 0.042832 0.64 0.123125L0.646875 0.12C0.453041 0.215926 0.28981 0.364022 0.175534 0.547637C0.061258 0.731252 0.00046835 0.943104 0 1.15937L0 8.76688C0.000330877 9.07476 0.122783 9.36993 0.340488 9.58764C0.558193 9.80534 0.853369 9.92779 1.16125 9.92813H13.8381C14.146 9.92779 14.4412 9.80534 14.6589 9.58764C14.8766 9.36993 14.999 9.07476 14.9994 8.76688V1.15937C14.9994 0.705 14.7375 0.31125 14.3562 0.121875L14.3494 0.11875H14.3531Z" fill="#597445"/>
</svg>
