<?xml version="1.0" encoding="utf-8"?>
<!-- Generator: Adobe Illustrator 27.4.0, SVG Export Plug-In . SVG Version: 6.00 Build 0)  -->
<svg version="1.1" id="Layer_1" xmlns="http://www.w3.org/2000/svg" xmlns:xlink="http://www.w3.org/1999/xlink" x="0px" y="0px"
	 viewBox="0 0 1280 347.3" style="enable-background:new 0 0 1280 347.3;" xml:space="preserve">
<style type="text/css">
	.st0{fill:#002966;}
	.st1{fill:#A0DCFA;}
	.st2{fill:#FF4100;}
</style>
<g>
	<path class="st0" d="M355.24,194.07h17.06c4.57,19.35,17.97,24.83,35.95,24.83c14.62,0,23.92-5.33,23.92-16.6
		c0-12.19-11.27-15.99-19.34-18.43c-7.62-2.13-16.6-3.81-26.96-7.62c-14.17-5.18-24.37-12.19-24.37-28.64
		c0-25.44,22.39-34.27,41.59-34.27c26.81,0,41.28,16.15,42.04,38.69h-17.06c-1.52-19.35-15.38-23.61-26.66-23.61
		c-7.01,0-22.85,1.98-22.85,17.21c0,8.38,4.57,12.34,14.17,15.84c7.31,2.59,11.58,3.5,21.02,5.79c9.45,2.44,34.27,7.31,34.27,33.36
		c0,23-14.32,33.36-42.04,33.36C371.99,233.98,357.06,216,355.24,194.07"/>
	<path class="st0" d="M509.85,205.04v-11.43h-4.72c-18.58,0-33.97,2.59-33.97,15.23c0,7.31,5.33,11.88,15.69,11.88
		C502.38,220.73,509.85,210.67,509.85,205.04 M455.31,209c0-7.31,2.89-13.56,8.99-18.13c6.7-5.18,17.67-8.07,40.98-8.07h4.42v-4.57
		c0-9.44-4.42-15.69-16.91-15.69c-13.56,0-17.52,6.7-17.82,12.34h-15.69c0.3-11.43,7.16-25.59,33.82-25.59
		c19.8,0,32.75,7.92,32.75,34.43v28.33v9.29v10.21h-15.39v-11.27h-0.15c-5.33,8.53-15.54,12.95-27.57,12.95
		C462.32,233.22,455.31,220.57,455.31,209"/>
	<path class="st0" d="M540.77,209.76v-44.33h-10.51v-12.34c9.14,0,11.27-3.96,11.27-13.4V131h15.23v20.56h17.37v13.86h-17.37v40.67
		c0,10.21,3.5,13.1,13.25,13.1c1.52,0,2.89,0,5.18-0.15v13.56c-3.5,0.3-6.4,0.46-9.6,0.46
		C547.01,233.06,540.77,224.99,540.77,209.76"/>
	<path class="st0" d="M638.1,184.78c0-15.08-9.29-22.09-20.72-22.09c-11.43,0-21.17,7.01-21.17,22.09H638.1z M579.76,191.33
		c0-24.68,14.01-42.2,37.63-42.2c21.17,0,36.56,13.86,36.56,35.64v12.03l-57.88,0.15c1.37,14.17,8.83,23.46,22.09,23.46
		c10.97,0,17.97-6.86,20.11-12.49h15.69c-1.37,11.27-13.56,26.05-35.95,26.05C593.17,233.98,579.76,215.7,579.76,191.33"/>
</g>
<rect x="665.37" y="115.77" class="st0" width="15.99" height="115.77"/>
<rect x="696.75" y="115.77" class="st0" width="15.99" height="115.77"/>
<path class="st0" d="M728.12,151.57h15.99v79.97h-15.99V151.57z M727.51,115.77h17.37v16.6h-17.37V115.77z"/>
<g>
	<path class="st0" d="M816.47,186.45c0-14.62-9.9-23.61-23.46-23.61c-15.08,0-23.46,11.12-23.46,28.33
		c0,17.52,8.53,29.09,23.76,29.09c13.71,0,23.15-9.29,23.15-25.44V186.45z M832.47,151.57v73.88c0,33.82-15.08,42.65-36.71,42.65
		c-20.87,0-34.27-8.23-38.24-27.42h15.84c2.59,9.75,10.97,13.86,21.78,13.86c15.99,0,21.33-9.14,21.33-29.4v-4.87
		c-5.94,9.44-15.23,13.71-26.35,13.71c-22.7,0-35.64-18.13-35.64-43.26c0-22.85,10.81-41.59,34.88-41.59
		c11.12,0,20.87,3.96,27.11,14.32v-11.88H832.47z"/>
	<path class="st0" d="M900.25,184.78c0-15.08-9.29-22.09-20.72-22.09c-11.43,0-21.17,7.01-21.17,22.09H900.25z M841.91,191.33
		c0-24.68,14.01-42.2,37.63-42.2c21.17,0,36.56,13.86,36.56,35.64v12.03l-57.89,0.15c1.37,14.17,8.84,23.46,22.09,23.46
		c10.97,0,17.97-6.86,20.11-12.49h15.69c-1.37,11.27-13.56,26.05-35.95,26.05C855.31,233.98,841.91,215.7,841.91,191.33"/>
	<path class="st0" d="M927.52,151.57h15.99v12.03c6.55-10.97,17.36-14.47,26.66-14.47c18.13,0,29.1,13.25,29.1,32.45v49.96h-15.99
		V186.3c0-15.08-6.4-23.61-17.67-23.61c-12.03,0-22.09,9.6-22.09,25.9v42.96h-15.99V151.57z"/>
	<path class="st0" d="M1009.01,191.48c0-24.83,13.86-42.35,38.08-42.35c20.72,0,34.88,12.49,36.1,31.07h-15.84
		c-1.98-11.88-8.99-17.52-19.96-17.52c-14.62,0-22.39,11.42-22.39,28.79s7.62,28.94,22.39,28.94c10.97,0,17.97-7.01,20.11-15.69
		h15.69c-1.37,14.47-13.56,29.25-35.95,29.25C1022.41,233.98,1009.01,215.55,1009.01,191.48"/>
	<path class="st0" d="M1148.39,184.78c0-15.08-9.29-22.09-20.72-22.09c-11.42,0-21.17,7.01-21.17,22.09H1148.39z M1090.05,191.33
		c0-24.68,14.01-42.2,37.63-42.2c21.17,0,36.56,13.86,36.56,35.64v12.03l-57.88,0.15c1.37,14.17,8.83,23.46,22.09,23.46
		c10.97,0,17.97-6.86,20.11-12.49h15.69c-1.37,11.27-13.56,26.05-35.95,26.05C1103.45,233.98,1090.05,215.7,1090.05,191.33"/>
	<path class="st1" d="M212.22,202.53L212.22,202.53c0.02,0.42,0.03,0.84,0.03,1.27c0,16.65-13.49,30.14-30.14,30.14
		s-30.14-13.49-30.14-30.14c0-16.64,13.49-30.14,30.14-30.14c0.44,0,0.88,0.01,1.32,0.03c-4.64-9.06-7.25-19.32-7.25-30.19
		c0-1.95,0.09-3.88,0.25-5.79c-8.81,0.75-17.12,3.21-24.61,7.06c-0.65,15.61-13.18,28.15-28.78,28.83
		c-4.64,9.06-7.26,19.33-7.26,30.2c0,10.88,2.62,21.15,7.26,30.2c15.61,0.67,28.13,13.21,28.78,28.83
		c9.08,4.67,19.38,7.31,30.3,7.31s21.22-2.64,30.3-7.31c0.65-15.61,13.18-28.15,28.78-28.83c3.81-7.44,6.25-15.69,7.01-24.42
		c-1.87,0.16-3.77,0.25-5.68,0.25C231.6,209.84,221.3,207.2,212.22,202.53"/>
	<path class="st2" d="M242.51,173.61c-16.65,0-30.14-13.49-30.14-30.14c0-16.64,13.49-30.14,30.14-30.14
		c16.65,0,30.14,13.49,30.14,30.14C272.65,160.12,259.16,173.61,242.51,173.61 M242.51,77.16c-10.86,0-21.12,2.61-30.17,7.24
		c-0.64,15.66-13.23,28.23-28.89,28.86c-4.65,9.07-7.28,19.35-7.28,30.24c0,10.87,2.62,21.14,7.25,30.19
		c15.61,0.67,28.14,13.22,28.79,28.84c9.08,4.67,19.38,7.31,30.3,7.31c36.64,0,66.34-29.7,66.34-66.34
		C308.85,106.86,279.15,77.16,242.51,77.16"/>
</g>
</svg>
