<svg width="360" height="360" viewBox="0 0 360 360" fill="none" xmlns="http://www.w3.org/2000/svg">
<path d="M0 292.131C0 291.316 0.64471 290.656 1.44 290.656H358.56C359.355 290.656 360 291.316 360 292.131V314.262C360 315.077 359.355 315.738 358.56 315.738H1.44C0.644713 315.738 0 315.077 0 314.262V292.131Z" fill="#E7F0DC"/>
<path d="M0 336.393C0 335.579 0.64471 334.918 1.44 334.918H358.56C359.355 334.918 360 335.579 360 336.393V358.525C360 359.339 359.355 360 358.56 360H1.44C0.644713 360 0 359.339 0 358.525V336.393Z" fill="#E7F0DC"/>
<path d="M96.48 209.508C96.48 208.693 97.1247 208.033 97.92 208.033H120.96C121.755 208.033 122.4 208.693 122.4 209.508V265.574C122.4 266.389 121.755 267.049 120.96 267.049H97.92C97.1247 267.049 96.48 266.389 96.48 265.574V209.508Z" fill="#E7F0DC"/>
<path d="M156.96 53.8525C156.96 83.5944 133.428 107.705 104.4 107.705C75.3719 107.705 51.84 83.5944 51.84 53.8525C51.84 24.1106 75.3719 0 104.4 0C133.428 0 156.96 24.1106 156.96 53.8525Z" fill="#E7F0DC"/>
<path d="M197.28 135.738C197.28 168.332 173.103 194.754 143.28 194.754C113.457 194.754 89.28 168.332 89.28 135.738C89.28 103.144 113.457 76.7213 143.28 76.7213C173.103 76.7213 197.28 103.144 197.28 135.738Z" fill="#E7F0DC"/>
<path d="M89.28 89.2623C89.28 110.856 71.5505 128.361 49.68 128.361C27.8095 128.361 10.08 110.856 10.08 89.2623C10.08 67.6689 27.8095 50.1639 49.68 50.1639C71.5505 50.1639 89.28 67.6689 89.28 89.2623Z" fill="#E7F0DC"/>
<path d="M18.72 153.443C18.72 129.812 37.4166 110.656 60.48 110.656H144C167.063 110.656 185.76 129.812 185.76 153.443C185.76 177.073 167.063 196.23 144 196.23H60.48C37.4166 196.23 18.72 177.073 18.72 153.443Z" fill="#E7F0DC"/>
<path d="M48.96 108.443C48.96 94.1828 60.2424 82.623 74.16 82.623H126C139.918 82.623 151.2 94.1828 151.2 108.443C151.2 122.702 139.918 134.262 126 134.262H74.16C60.2424 134.262 48.96 122.702 48.96 108.443Z" fill="#E7F0DC"/>
<path d="M194.81 61.3508C218.903 55.5391 232.7 63.1827 240.976 70.1447C242.301 71.259 244.281 71.0402 245.379 69.6917C259.218 52.689 277.535 54.4789 290.076 55.7294C292.316 55.9528 293.801 53.5721 292.439 51.736C279.114 33.7807 254.215 42.7948 244.17 50.8333C243.217 51.596 241.905 51.7637 240.82 51.2171C211.281 36.3399 196.673 47.3396 191.699 57.9225C190.748 59.9471 192.675 61.8658 194.81 61.3508Z" fill="#E7F0DC"/>
<path d="M271.567 10.133C287.267 11.0126 294.985 17.9294 299.354 23.8669C300.386 25.2689 302.345 25.5875 303.774 24.6192C315.227 16.8624 326.364 20.4242 334.408 23.4728C336.519 24.273 338.531 22.3849 337.519 20.3243C331.205 7.46277 314.285 8.60315 306.076 11.8984C304.949 12.3503 303.645 12.1772 302.728 11.3693C286.563 -2.87396 275.231 0.464046 269.605 6.07999C268.034 7.64811 269.377 10.0103 271.567 10.133Z" fill="#E7F0DC"/>
<path d="M231.69 151.742C260.557 148.035 275.848 157.469 284.7 165.343C285.879 166.392 287.649 166.349 288.807 165.275C306.057 149.265 327.044 152.916 341.34 155.404L341.658 155.459C343.943 155.857 345.579 153.469 344.2 151.561C330.32 132.367 300.872 139.197 289.032 146.258C288.097 146.816 286.929 146.856 285.975 146.331C253.207 128.324 235.554 137.939 229.042 148.025C227.835 149.895 229.518 152.021 231.69 151.742Z" fill="#E7F0DC"/>
</svg>
